<svg xmlns="http://www.w3.org/2000/svg" width="820" height="468" viewBox="0 0 820 468" role="img" aria-label="Tech stack by comfort level">
  <title>Tech stack (updated 2026-07-18)</title>
  <style>
    :root { --bg:#ffffff; --ink:#0a0a0a; --g200:#e9e9e9; --g400:#a3a3a3; --g500:#737373; }
    @media (prefers-color-scheme: dark) {
      :root { --bg:#0c0c0f; --ink:#f4f4f5; --g200:#2a2a30; --g400:#8a8a92; --g500:#a0a0a8; }
      .dot-ink { fill-opacity:0.42; }
      .shadowfx { flood-opacity:0; }
    }
    text { font-family:-apple-system,BlinkMacSystemFont,"Segoe UI",system-ui,sans-serif; }
    .micro, .label { font-family:ui-monospace,SFMono-Regular,Consolas,Menlo,monospace; }
    .card { fill:var(--bg); stroke:var(--g200); stroke-width:1; }
    .ink { fill:var(--ink); }
    .name { font-size:15px; font-weight:500; fill:var(--ink); }
    .label { font-size:11px; letter-spacing:1.5px; fill:var(--g400); }
    .micro { font-size:9.5px; letter-spacing:1.2px; fill:var(--g500); }
    .hair { stroke:var(--g200); stroke-width:1; }
    .dot-ink { fill:var(--ink); fill-opacity:0.9; }
    .dot-track { fill:var(--g400); fill-opacity:0.45; }
    .shadowfx { flood-opacity:0.16; }
    .row { animation:rise .7s cubic-bezier(.16,1,.3,1) both; }
    @keyframes rise { from { opacity:0; transform:translateY(12px); } }
    @media (prefers-reduced-motion: reduce) { .row { animation:none; } }
  </style>
  <defs>
    <pattern id="dots-track" width="6" height="6" patternUnits="userSpaceOnUse"><circle class="dot-track" cx="3" cy="3" r="1.1"/></pattern>
    <pattern id="dots-ink" width="6" height="6" patternUnits="userSpaceOnUse"><circle class="dot-ink" cx="3" cy="3" r="1.2"/></pattern>
    <filter id="soft" x="-20%" y="-20%" width="140%" height="150%"><feDropShadow class="shadowfx" dx="0" dy="8" stdDeviation="11" flood-color="#000"/></filter>
  </defs>
  <g transform="translate(20,20)">
    <rect class="card" width="780" height="428" rx="16" filter="url(#soft)"/>
    <text class="label" x="28" y="36">SELF-REPORTED — HONESTLY</text>
    <rect class="ink" x="35" y="66" width="6" height="6"/><rect class="ink" x="42" y="66" width="6" height="6"/><rect class="ink" x="49" y="66" width="6" height="6"/><rect class="ink" x="56" y="66" width="6" height="6"/><rect class="ink" x="28" y="73" width="6" height="6"/><rect class="ink" x="35" y="80" width="6" height="6"/><rect class="ink" x="42" y="80" width="6" height="6"/><rect class="ink" x="49" y="80" width="6" height="6"/><rect class="ink" x="56" y="87" width="6" height="6"/><rect class="ink" x="28" y="94" width="6" height="6"/><rect class="ink" x="35" y="94" width="6" height="6"/><rect class="ink" x="42" y="94" width="6" height="6"/><rect class="ink" x="49" y="94" width="6" height="6"/><rect class="ink" x="77" y="59" width="6" height="6"/><rect class="ink" x="70" y="66" width="6" height="6"/><rect class="ink" x="77" y="66" width="6" height="6"/><rect class="ink" x="84" y="66" width="6" height="6"/><rect class="ink" x="91" y="66" width="6" height="6"/><rect class="ink" x="77" y="73" width="6" height="6"/><rect class="ink" x="77" y="80" width="6" height="6"/><rect class="ink" x="77" y="87" width="6" height="6"/><rect class="ink" x="84" y="94" width="6" height="6"/><rect class="ink" x="91" y="94" width="6" height="6"/><rect class="ink" x="119" y="66" width="6" height="6"/><rect class="ink" x="126" y="66" width="6" height="6"/><rect class="ink" x="133" y="66" width="6" height="6"/><rect class="ink" x="140" y="73" width="6" height="6"/><rect class="ink" x="119" y="80" width="6" height="6"/><rect class="ink" x="126" y="80" width="6" height="6"/><rect class="ink" x="133" y="80" width="6" height="6"/><rect class="ink" x="140" y="80" width="6" height="6"/><rect class="ink" x="112" y="87" width="6" height="6"/><rect class="ink" x="140" y="87" width="6" height="6"/><rect class="ink" x="119" y="94" width="6" height="6"/><rect class="ink" x="126" y="94" width="6" height="6"/><rect class="ink" x="133" y="94" width="6" height="6"/><rect class="ink" x="140" y="94" width="6" height="6"/><rect class="ink" x="161" y="66" width="6" height="6"/><rect class="ink" x="168" y="66" width="6" height="6"/><rect class="ink" x="175" y="66" width="6" height="6"/><rect class="ink" x="182" y="66" width="6" height="6"/><rect class="ink" x="154" y="73" width="6" height="6"/><rect class="ink" x="154" y="80" width="6" height="6"/><rect class="ink" x="154" y="87" width="6" height="6"/><rect class="ink" x="161" y="94" width="6" height="6"/><rect class="ink" x="168" y="94" width="6" height="6"/><rect class="ink" x="175" y="94" width="6" height="6"/><rect class="ink" x="182" y="94" width="6" height="6"/><rect class="ink" x="196" y="52" width="6" height="6"/><rect class="ink" x="196" y="59" width="6" height="6"/><rect class="ink" x="196" y="66" width="6" height="6"/><rect class="ink" x="217" y="66" width="6" height="6"/><rect class="ink" x="196" y="73" width="6" height="6"/><rect class="ink" x="210" y="73" width="6" height="6"/><rect class="ink" x="196" y="80" width="6" height="6"/><rect class="ink" x="203" y="80" width="6" height="6"/><rect class="ink" x="196" y="87" width="6" height="6"/><rect class="ink" x="210" y="87" width="6" height="6"/><rect class="ink" x="196" y="94" width="6" height="6"/><rect class="ink" x="217" y="94" width="6" height="6"/>

  <g class="row" style="animation-delay:50ms">
    <text class="label" x="28" y="154">01 — DAILY</text>
    <rect x="703" y="143" width="22" height="14" fill="url(#dots-ink)"/><rect x="730" y="143" width="22" height="14" fill="url(#dots-ink)"/>
  </g><line class="hair" x1="28" y1="172" x2="752" y2="172"/><line class="hair" x1="28" y1="218" x2="752" y2="218"/><line class="hair" x1="28" y1="264" x2="752" y2="264"/><line class="hair" x1="269.33333333333337" y1="172" x2="269.33333333333337" y2="264"/><line class="hair" x1="510.6666666666667" y1="172" x2="510.6666666666667" y2="264"/>
  <g class="row" style="animation-delay:120ms">
    <text class="name" x="44" y="200">TypeScript</text>
  </g>
  <g class="row" style="animation-delay:190ms">
    <text class="name" x="285.33333333333337" y="200">React</text>
  </g>
  <g class="row" style="animation-delay:260ms">
    <text class="name" x="526.6666666666667" y="200">React Native</text>
  </g>
  <g class="row" style="animation-delay:330ms">
    <text class="name" x="44" y="246">Python</text>
  </g>
  <g class="row" style="animation-delay:330ms">
    <text class="name" x="285.33333333333337" y="246">FastAPI</text>
  </g>
  <g class="row" style="animation-delay:330ms">
    <text class="name" x="526.6666666666667" y="246">PostgreSQL</text>
  </g>
  <g class="row" style="animation-delay:330ms">
    <text class="label" x="28" y="306">02 — LEARNING</text>
    <rect x="703" y="295" width="22" height="14" fill="url(#dots-ink)"/><rect x="730" y="295" width="22" height="14" fill="url(#dots-track)"/>
  </g><line class="hair" x1="28" y1="324" x2="752" y2="324"/><line class="hair" x1="28" y1="370" x2="752" y2="370"/><line class="hair" x1="269.33333333333337" y1="324" x2="269.33333333333337" y2="370"/>
  <g class="row" style="animation-delay:330ms">
    <text class="name" x="44" y="352">JavaScript</text>
  </g>
  <g class="row" style="animation-delay:330ms">
    <text class="name" x="285.33333333333337" y="352">HTML &amp; CSS</text>
  </g>
    <text class="micro" x="28" y="415">UPDATED 2026-07-18 — DAILY: WHAT I BUILD WITH · LEARNING: WHAT I'M STUDYING</text>
  </g>
</svg>
